<svg xmlns="http://www.w3.org/2000/svg" width="33" height="54" fill="none" viewBox="0 0 33 54">
  <g filter="url(#a)">
    <path fill="url(#b)" d="m26.466 11.305 2.33-5.345L25.112.892l-9.098 3.704-8.28 6.119-3.302 9.505 1.676 12.89 5.365 6.362 7.348 6.103 3.966-.515 1.468-4.225-.773-5.95-1.096-8.429 1.383-8.751 2.697-6.401Z"/>
    <path stroke="#EACB84" stroke-width=".2" d="m26.466 11.305 2.33-5.345L25.112.892l-9.098 3.704-8.28 6.119-3.302 9.505 1.676 12.89 5.365 6.362 7.348 6.103 3.966-.515 1.468-4.225-.773-5.95-1.096-8.429 1.383-8.751 2.697-6.401Z"/>
  </g>
  <defs>
    <linearGradient id="b" x1="9.712" x2="23.486" y1="22.054" y2="23.289" gradientUnits="userSpaceOnUse">
      <stop stop-color="#8D0707"/>
      <stop offset=".536" stop-color="#FFB7B7"/>
      <stop offset=".625" stop-color="#FFBCBC"/>
      <stop offset="1" stop-color="#8D0707"/>
    </linearGradient>
    <filter id="a" width="32.581" height="52.911" x=".329" y=".77" color-interpolation-filters="sRGB" filterUnits="userSpaceOnUse">
      <feFlood flood-opacity="0" result="BackgroundImageFix"/>
      <feColorMatrix in="SourceAlpha" result="hardAlpha" values="0 0 0 0 0 0 0 0 0 0 0 0 0 0 0 0 0 0 127 0"/>
      <feOffset dy="4"/>
      <feGaussianBlur stdDeviation="2"/>
      <feComposite in2="hardAlpha" operator="out"/>
      <feColorMatrix values="0 0 0 0 0 0 0 0 0 0 0 0 0 0 0 0 0 0 0.25 0"/>
      <feBlend in2="BackgroundImageFix" result="effect1_dropShadow_849_853"/>
      <feBlend in="SourceGraphic" in2="effect1_dropShadow_849_853" result="shape"/>
    </filter>
  </defs>
</svg>
