<svg xmlns="http://www.w3.org/2000/svg" width="60" height="102" fill="none" viewBox="0 0 60 102">
  <g filter="url(#a)">
    <circle cx="8.5" cy="2.5" r="1.5" fill="#F8E49B"/>
  </g>
  <g filter="url(#b)">
    <circle cx="50.5" cy="2.5" r="1.5" fill="#F8E49B"/>
  </g>
  <g filter="url(#c)">
    <circle cx="50.5" cy="92.5" r="1.5" fill="#F8E49B"/>
  </g>
  <g filter="url(#d)">
    <circle cx="8.5" cy="92.5" r="1.5" fill="#F8E49B"/>
  </g>
  <path stroke="#F8E49B" stroke-width=".5" d="m35.122.151-1.5 2.722m3-.222-1.5 2.5m0-5 1.5 2.5m-3 0 1.663 2.385M21.292.441l-.75.823-.75.823m.001-.436 3 3.5m-.088-3.572-2.912 3.573M21.113.27l1.624 1.636M13.25 0v5M15.42.201l-2.271 1.686m2.316-.682-2.322 1.614M43.42 0v5m.25-2.5-2.5-2m2.331 1.822L45.67.5M27.25.151v5m2.12-3.542L27 .355m2.211 3.381L27 2.454m8.122 87.697-1.5 2.722m3-.222-1.5 2.5m0-5 1.5 2.5m-3 0 1.663 2.385m-13.993-4.595-.75.823-.75.823m.001-.436 3 3.5m-.088-3.572-2.912 3.573m1.32-4.882 1.624 1.636M13.25 90v5m2.17-4.799-2.271 1.686m2.316-.682-2.322 1.614M43.42 90v5m.25-2.5-2.5-2m2.331 1.822L45.67 90.5m-18.42-.349v5m2.12-3.542L27 90.355m2.211 3.381L27 92.454"/>
  <g filter="url(#e)">
    <ellipse cx="13.131" cy="71.04" fill="#F8E49B" rx="1.444" ry="1.49" transform="rotate(-20.84 13.131 71.04)"/>
  </g>
  <g filter="url(#f)">
    <ellipse cx="23.346" cy="51.206" fill="#F8E49B" rx="1.444" ry="1.49" transform="rotate(-20.84 23.346 51.206)"/>
  </g>
  <g filter="url(#g)">
    <ellipse cx="29.851" cy="43.945" fill="#F8E49B" rx="1.444" ry="1.49" transform="rotate(-20.84 29.851 43.945)"/>
  </g>
  <g filter="url(#h)">
    <ellipse cx="44.09" cy="26.565" fill="#F8E49B" rx="1.444" ry="1.49" transform="rotate(-20.84 44.09 26.565)"/>
  </g>
  <g filter="url(#i)">
    <ellipse cx="50.766" cy="35.984" fill="#F8E49B" rx="1.444" ry="1.49" transform="rotate(-20.84 50.766 35.984)"/>
  </g>
  <g filter="url(#j)">
    <ellipse cx="40.454" cy="49.477" fill="#F8E49B" rx="1.444" ry="1.49" transform="rotate(-20.84 40.454 49.477)"/>
  </g>
  <g filter="url(#k)">
    <ellipse cx="16.576" cy="57.77" fill="#F8E49B" rx="1.444" ry="1.49" transform="rotate(-20.84 16.576 57.77)"/>
  </g>
  <path stroke="#F8E49B" stroke-opacity=".7" d="M0-.5h13.19" transform="matrix(.21373 -.9769 .97019 .24235 13.756 70.655)"/>
  <path stroke="#F8E49B" stroke-opacity=".7" d="M0-.5h7.758" transform="matrix(.73923 -.67346 .6577 .75328 17.201 57.384)"/>
  <path stroke="#F8E49B" stroke-opacity=".7" d="M0-.5h7.489" transform="matrix(.63375 -.77354 .7562 .65433 24.695 50.692)"/>
  <path stroke="#F8E49B" stroke-opacity=".7" d="M0-.5h9.437" transform="matrix(.90146 .43287 -.4041 .91472 31.007 44.952)"/>
  <path stroke="#F8E49B" stroke-opacity=".7" d="M0-.5h10.06" transform="matrix(.54861 .83608 -.82847 .56003 44.355 27.262)"/>
  <path stroke="#F8E49B" stroke-opacity=".7" d="M0-.5h14.742" transform="matrix(.5809 -.81398 .79687 .60415 41.793 48.936)"/>
  <defs>
    <filter id="a" width="11" height="11" x="3" y="1" color-interpolation-filters="sRGB" filterUnits="userSpaceOnUse">
      <feFlood flood-opacity="0" result="BackgroundImageFix"/>
      <feColorMatrix in="SourceAlpha" result="hardAlpha" values="0 0 0 0 0 0 0 0 0 0 0 0 0 0 0 0 0 0 127 0"/>
      <feOffset dy="4"/>
      <feGaussianBlur stdDeviation="2"/>
      <feComposite in2="hardAlpha" operator="out"/>
      <feColorMatrix values="0 0 0 0 0 0 0 0 0 0 0 0 0 0 0 0 0 0 0.25 0"/>
      <feBlend in2="BackgroundImageFix" result="effect1_dropShadow_561_764"/>
      <feBlend in="SourceGraphic" in2="effect1_dropShadow_561_764" result="shape"/>
    </filter>
    <filter id="b" width="11" height="11" x="45" y="1" color-interpolation-filters="sRGB" filterUnits="userSpaceOnUse">
      <feFlood flood-opacity="0" result="BackgroundImageFix"/>
      <feColorMatrix in="SourceAlpha" result="hardAlpha" values="0 0 0 0 0 0 0 0 0 0 0 0 0 0 0 0 0 0 127 0"/>
      <feOffset dy="4"/>
      <feGaussianBlur stdDeviation="2"/>
      <feComposite in2="hardAlpha" operator="out"/>
      <feColorMatrix values="0 0 0 0 0 0 0 0 0 0 0 0 0 0 0 0 0 0 0.25 0"/>
      <feBlend in2="BackgroundImageFix" result="effect1_dropShadow_561_764"/>
      <feBlend in="SourceGraphic" in2="effect1_dropShadow_561_764" result="shape"/>
    </filter>
    <filter id="c" width="11" height="11" x="45" y="91" color-interpolation-filters="sRGB" filterUnits="userSpaceOnUse">
      <feFlood flood-opacity="0" result="BackgroundImageFix"/>
      <feColorMatrix in="SourceAlpha" result="hardAlpha" values="0 0 0 0 0 0 0 0 0 0 0 0 0 0 0 0 0 0 127 0"/>
      <feOffset dy="4"/>
      <feGaussianBlur stdDeviation="2"/>
      <feComposite in2="hardAlpha" operator="out"/>
      <feColorMatrix values="0 0 0 0 0 0 0 0 0 0 0 0 0 0 0 0 0 0 0.25 0"/>
      <feBlend in2="BackgroundImageFix" result="effect1_dropShadow_561_764"/>
      <feBlend in="SourceGraphic" in2="effect1_dropShadow_561_764" result="shape"/>
    </filter>
    <filter id="d" width="11" height="11" x="3" y="91" color-interpolation-filters="sRGB" filterUnits="userSpaceOnUse">
      <feFlood flood-opacity="0" result="BackgroundImageFix"/>
      <feColorMatrix in="SourceAlpha" result="hardAlpha" values="0 0 0 0 0 0 0 0 0 0 0 0 0 0 0 0 0 0 127 0"/>
      <feOffset dy="4"/>
      <feGaussianBlur stdDeviation="2"/>
      <feComposite in2="hardAlpha" operator="out"/>
      <feColorMatrix values="0 0 0 0 0 0 0 0 0 0 0 0 0 0 0 0 0 0 0.25 0"/>
      <feBlend in2="BackgroundImageFix" result="effect1_dropShadow_561_764"/>
      <feBlend in="SourceGraphic" in2="effect1_dropShadow_561_764" result="shape"/>
    </filter>
    <filter id="e" width="10.9" height="10.97" x="7.681" y="69.555" color-interpolation-filters="sRGB" filterUnits="userSpaceOnUse">
      <feFlood flood-opacity="0" result="BackgroundImageFix"/>
      <feColorMatrix in="SourceAlpha" result="hardAlpha" values="0 0 0 0 0 0 0 0 0 0 0 0 0 0 0 0 0 0 127 0"/>
      <feOffset dy="4"/>
      <feGaussianBlur stdDeviation="2"/>
      <feComposite in2="hardAlpha" operator="out"/>
      <feColorMatrix values="0 0 0 0 0 0 0 0 0 0 0 0 0 0 0 0 0 0 0.25 0"/>
      <feBlend in2="BackgroundImageFix" result="effect1_dropShadow_561_764"/>
      <feBlend in="SourceGraphic" in2="effect1_dropShadow_561_764" result="shape"/>
    </filter>
    <filter id="f" width="10.9" height="10.97" x="17.896" y="49.721" color-interpolation-filters="sRGB" filterUnits="userSpaceOnUse">
      <feFlood flood-opacity="0" result="BackgroundImageFix"/>
      <feColorMatrix in="SourceAlpha" result="hardAlpha" values="0 0 0 0 0 0 0 0 0 0 0 0 0 0 0 0 0 0 127 0"/>
      <feOffset dy="4"/>
      <feGaussianBlur stdDeviation="2"/>
      <feComposite in2="hardAlpha" operator="out"/>
      <feColorMatrix values="0 0 0 0 0 0 0 0 0 0 0 0 0 0 0 0 0 0 0.25 0"/>
      <feBlend in2="BackgroundImageFix" result="effect1_dropShadow_561_764"/>
      <feBlend in="SourceGraphic" in2="effect1_dropShadow_561_764" result="shape"/>
    </filter>
    <filter id="g" width="10.9" height="10.97" x="24.401" y="42.46" color-interpolation-filters="sRGB" filterUnits="userSpaceOnUse">
      <feFlood flood-opacity="0" result="BackgroundImageFix"/>
      <feColorMatrix in="SourceAlpha" result="hardAlpha" values="0 0 0 0 0 0 0 0 0 0 0 0 0 0 0 0 0 0 127 0"/>
      <feOffset dy="4"/>
      <feGaussianBlur stdDeviation="2"/>
      <feComposite in2="hardAlpha" operator="out"/>
      <feColorMatrix values="0 0 0 0 0 0 0 0 0 0 0 0 0 0 0 0 0 0 0.25 0"/>
      <feBlend in2="BackgroundImageFix" result="effect1_dropShadow_561_764"/>
      <feBlend in="SourceGraphic" in2="effect1_dropShadow_561_764" result="shape"/>
    </filter>
    <filter id="h" width="10.9" height="10.97" x="38.64" y="25.08" color-interpolation-filters="sRGB" filterUnits="userSpaceOnUse">
      <feFlood flood-opacity="0" result="BackgroundImageFix"/>
      <feColorMatrix in="SourceAlpha" result="hardAlpha" values="0 0 0 0 0 0 0 0 0 0 0 0 0 0 0 0 0 0 127 0"/>
      <feOffset dy="4"/>
      <feGaussianBlur stdDeviation="2"/>
      <feComposite in2="hardAlpha" operator="out"/>
      <feColorMatrix values="0 0 0 0 0 0 0 0 0 0 0 0 0 0 0 0 0 0 0.25 0"/>
      <feBlend in2="BackgroundImageFix" result="effect1_dropShadow_561_764"/>
      <feBlend in="SourceGraphic" in2="effect1_dropShadow_561_764" result="shape"/>
    </filter>
    <filter id="i" width="10.9" height="10.97" x="45.315" y="34.499" color-interpolation-filters="sRGB" filterUnits="userSpaceOnUse">
      <feFlood flood-opacity="0" result="BackgroundImageFix"/>
      <feColorMatrix in="SourceAlpha" result="hardAlpha" values="0 0 0 0 0 0 0 0 0 0 0 0 0 0 0 0 0 0 127 0"/>
      <feOffset dy="4"/>
      <feGaussianBlur stdDeviation="2"/>
      <feComposite in2="hardAlpha" operator="out"/>
      <feColorMatrix values="0 0 0 0 0 0 0 0 0 0 0 0 0 0 0 0 0 0 0.25 0"/>
      <feBlend in2="BackgroundImageFix" result="effect1_dropShadow_561_764"/>
      <feBlend in="SourceGraphic" in2="effect1_dropShadow_561_764" result="shape"/>
    </filter>
    <filter id="j" width="10.9" height="10.97" x="35.004" y="47.992" color-interpolation-filters="sRGB" filterUnits="userSpaceOnUse">
      <feFlood flood-opacity="0" result="BackgroundImageFix"/>
      <feColorMatrix in="SourceAlpha" result="hardAlpha" values="0 0 0 0 0 0 0 0 0 0 0 0 0 0 0 0 0 0 127 0"/>
      <feOffset dy="4"/>
      <feGaussianBlur stdDeviation="2"/>
      <feComposite in2="hardAlpha" operator="out"/>
      <feColorMatrix values="0 0 0 0 0 0 0 0 0 0 0 0 0 0 0 0 0 0 0.25 0"/>
      <feBlend in2="BackgroundImageFix" result="effect1_dropShadow_561_764"/>
      <feBlend in="SourceGraphic" in2="effect1_dropShadow_561_764" result="shape"/>
    </filter>
    <filter id="k" width="10.9" height="10.97" x="11.126" y="56.285" color-interpolation-filters="sRGB" filterUnits="userSpaceOnUse">
      <feFlood flood-opacity="0" result="BackgroundImageFix"/>
      <feColorMatrix in="SourceAlpha" result="hardAlpha" values="0 0 0 0 0 0 0 0 0 0 0 0 0 0 0 0 0 0 127 0"/>
      <feOffset dy="4"/>
      <feGaussianBlur stdDeviation="2"/>
      <feComposite in2="hardAlpha" operator="out"/>
      <feColorMatrix values="0 0 0 0 0 0 0 0 0 0 0 0 0 0 0 0 0 0 0.25 0"/>
      <feBlend in2="BackgroundImageFix" result="effect1_dropShadow_561_764"/>
      <feBlend in="SourceGraphic" in2="effect1_dropShadow_561_764" result="shape"/>
    </filter>
  </defs>
</svg>
